<?xml version="1.0" encoding="UTF-8" standalone="no"?>
<svg version = "1.1"
     baseProfile="full"
     xmlns = "http://www.w3.org/2000/svg" 
     xmlns:xlink = "http://www.w3.org/1999/xlink"
     xmlns:ev = "http://www.w3.org/2001/xml-events"
     height = "100px"  width = "100px">
     <rect x="0" y="0" width="100" height="100" fill="none"/>
     <g fill="#5181b8">
        <path class="a" d="M100,50a50,50,0,1,0-50,50,50,50,0,0,0,50-50ZM50,8.33A41.67,41.67,0,1,1,8.31,50,41.67,41.67,0,0,1,50,8.33Z"/>
        <path class="a" d="M77.09,50A4,4,0,0,0,75,46.42L39.57,25.59a3.24,3.24,0,0,0-3.68-.07c-1.31.76-1.6,2.15-1.6,3.64V70.84c0,1.49.29,2.86,1.6,3.62a3.55,3.55,0,0,0,1.84.54,3.62,3.62,0,0,0,2-.59L75.07,53.56a4,4,0,0,0,2-3.57Z"/>
    </g>
</svg>