<?xml version="1.0" encoding="UTF-8" standalone="no"?>
<svg version = "1.1"
     baseProfile="full"
     xmlns = "http://www.w3.org/2000/svg" 
     xmlns:xlink = "http://www.w3.org/1999/xlink"
     xmlns:ev = "http://www.w3.org/2001/xml-events"
     height = "100px"  width = "100px">
     <rect x="0" y="0" width="100" height="100" fill="none"/>
     <g fill="#5181b8">
        <path class="a" d="M50,0a50,50,0,1,0,50,50A50,50,0,0,0,50,0Zm0,91.67A41.67,41.67,0,1,1,91.67,50,41.68,41.68,0,0,1,50,91.67Z"/>
        <path class="a" d="M38.44,25a4.15,4.15,0,0,0-4.15,4.16v41.7a4.16,4.16,0,1,0,8.31,0V29.14A4.16,4.16,0,0,0,38.44,25Z"/>
        <rect class="a" x="57.47" y="24.98" width="8.31" height="50.01" rx="4.16"/>
    </g>
</svg>